<?xml version='1.0' encoding='UTF-8' standalone='no'?>
<!-- Created with Inkscape (http://www.inkscape.org/) -->
<svg xmlns="http://www.w3.org/2000/svg" gorn="0" id="svg2" width="72"  height="153" version="1.1">
    <desc id="desc4033" >
        <referenceFile id="referenceFile4035" >Gas Sensor.svg</referenceFile>
    </desc>
    <defs id="defs4" >
        <linearGradient id="linearGradient4509" paint="gradient" >
            <stop id="stop4511" offset="0" style="stop-color:#26e5e5;stop-opacity:1;" />
            <stop id="stop4513" offset="1" style="stop-color:#26e5e5;stop-opacity:0;" />
        </linearGradient>
        <linearGradient id="linearGradient3755" paint="solid" >
            <stop id="stop3757" offset="0" style="stop-color:#000000;stop-opacity:1;" />
        </linearGradient>
        <linearGradient id="linearGradient3755-4" paint="solid" >
            <stop id="stop3757-0" offset="0" style="stop-color:#000000;stop-opacity:1;" />
        </linearGradient>
    </defs>
    <metadata id="metadata7" >
        <rdf:RDF xmlns:rdf="http://www.w3.org/1999/02/22-rdf-syntax-ns#">
            <cc:Work xmlns:rdf="http://www.w3.org/1999/02/22-rdf-syntax-ns#" rdf:about="" xmlns:cc="http://creativecommons.org/ns#">
                <dc:format xmlns:dc="http://purl.org/dc/elements/1.1/">image/svg+xml</dc:format>
                <dc:type xmlns:rdf="http://www.w3.org/1999/02/22-rdf-syntax-ns#" xmlns:dc="http://purl.org/dc/elements/1.1/" rdf:resource="http://purl.org/dc/dcmitype/StillImage"/>
                <dc:title xmlns:dc="http://purl.org/dc/elements/1.1/"/>
            </cc:Work>
        </rdf:RDF>
    </metadata>
    <g transform="translate(0,72)" >
        <g >
            <g gorn="0.3.0.0" id="g4046" >
                <g gorn="0.3.0.0.0" id="g4048" >
                    <g gorn="0.3.0.0.0.0" id="g4050" >
                        <g gorn="0.3.0.0.0.0.0" id="layer2" style="display:inline" >
                            <g transform="translate(0,-72)" >
                                <g >
                                    <g gorn="0.3.0.0.0.0.0.0.0.0" id="g4053" >
                                        <g gorn="0.3.0.0.0.0.0.0.0.0.0" id="g4055" >
                                            <g gorn="0.3.0.0.0.0.0.0.0.0.0.0" id="g4057" >
                                                <rect fill-opacity="1" gorn="0.3.0.0.0.0.0.0.0.0.0.0.0" id="rect6974" y="0" stroke="none" ry="8.1000004" width="72" x="0" fill="#2c54e4"  height="148.5"/>
                                            </g>
                                        </g>
                                    </g>
                                </g>
                            </g>
                            <g transform="translate(0,-72)" >
                                <g >
                                    <g gorn="0.3.0.0.0.0.0.1.0.0" id="g4060" >
                                        <g gorn="0.3.0.0.0.0.0.1.0.0.0" id="g4062" >
                                            <g gorn="0.3.0.0.0.0.0.1.0.0.0.0" id="g4064" >
                                                <path fill-opacity="1" gorn="0.3.0.0.0.0.0.1.0.0.0.0.0" id="path6978" stroke="none" d="m 61.200001,36.900002 a 25.200001,26.1 0 1 1 -50.400002,0 25.200001,26.1 0 1 1 50.400002,0 z" fill="#666666" />
                                            </g>
                                        </g>
                                    </g>
                                </g>
                            </g>
                            <g transform="matrix(0.36497225,0,0,0.36497225,54.489251,-69.802686)" >
                                <g >
                                    <g gorn="0.3.0.0.0.0.0.2.0.0" id="g4067" >
                                        <g transform="matrix(0.43755898,0,0,0.45331033,-179.25948,34.986871)" >
                                            <g >
                                                <g gorn="0.3.0.0.0.0.0.2.0.0.0.0.0" id="g4500" >
                                                    <path gorn="0.3.0.0.0.0.0.2.0.0.0.0.0.0" id="path4396" d="m 148,460.984 c 0,-41.162 0.04,-82.323 -0.084,-123.485 -0.009,-2.983 0.602,-3.583 3.583,-3.582 103.987,0.099 207.974,0.099 311.96,0.001 2.981,-0.003 3.594,0.598 3.584,3.581 -0.126,39.828 -0.14,79.657 0.015,119.484 0.013,3.426 -0.674,4.101 -4.098,4.097 C 357.974,460.963 252.987,460.984 148,460.984 z" clip-rule="evenodd" style="fill:#fefefe;fill-rule:evenodd" />
                                                    <path gorn="0.3.0.0.0.0.0.2.0.0.0.0.0.1" id="path4398" d="m 248.865,401.991 c -6.107,0 -11.909,-0.104 -17.705,0.056 -2.08,0.058 -3.388,-0.798 -4.687,-2.186 -3.174,-3.388 -6.424,-6.705 -9.777,-10.19 -2.538,2.974 -3.041,6.357 -3.478,9.361 -0.428,2.936 -1.672,3.026 -3.822,2.976 -2.995,-0.071 -5.994,-0.018 -8.992,-0.018 -6.874,0 -6.862,0.003 -5.18,-6.297 2.307,-8.644 4.569,-17.3 6.907,-25.936 0.648,-2.392 1.51,-4.016 4.836,-3.887 9.311,0.362 18.647,0.006 27.969,0.182 4.414,0.083 8.771,1.004 12.777,2.994 5.149,2.556 5.936,7.739 1.428,11.091 -2.964,2.205 -6.274,4.172 -10.056,4.797 -1.451,0.24 -3.682,-0.174 -3.835,1.334 -0.119,1.174 1.618,2.626 2.687,3.813 3.48,3.869 7.03,7.675 10.928,11.91 z" clip-rule="evenodd" style="fill:#221a15;fill-rule:evenodd" />
                                                    <path gorn="0.3.0.0.0.0.0.2.0.0.0.0.0.2" id="path4400" d="m 337.168,387.384 c 4.469,5.14 3.497,9.128 -2.889,11.573 -7.511,2.875 -15.375,3.205 -23.303,3.049 -4.476,-0.088 -8.955,-0.016 -13.853,-0.016 2.351,-9.102 4.63,-17.933 6.913,-26.763 0.31,-1.199 0.925,-2.25 2.282,-2.19 10.333,0.461 20.78,-1.39 30.995,1.722 2.788,0.849 5.758,1.545 6.132,4.757 0.373,3.201 -2.018,5.25 -4.606,6.831 -0.556,0.341 -1.109,0.688 -1.671,1.037 z" clip-rule="evenodd" style="fill:#221a15;fill-rule:evenodd" />
                                                    <path gorn="0.3.0.0.0.0.0.2.0.0.0.0.0.3" id="path4402" d="m 279.105,372.996 c 3.987,-0.444 8.097,0.806 11.867,2.783 6.671,3.5 8.007,9.423 3.876,15.637 -6.589,9.912 -26.601,13.917 -36.595,7.325 -7.317,-4.827 -7.286,-12.483 0.076,-18.732 5.061,-4.298 12.96,-7.018 20.776,-7.013 z" clip-rule="evenodd" style="fill:#221a16;fill-rule:evenodd" />
                                                    <path gorn="0.3.0.0.0.0.0.2.0.0.0.0.0.4" id="path4404" d="m 370.304,372.96 c 3.534,-0.469 7.493,0.787 11.173,2.523 7.089,3.344 8.66,10.016 4.172,16.323 -6.642,9.333 -26.183,13.283 -35.996,7.274 -7.641,-4.679 -7.906,-12.813 -0.376,-19.006 5.845,-4.808 12.719,-7.106 21.027,-7.114 z" clip-rule="evenodd" style="fill:#221a16;fill-rule:evenodd" />
                                                    <path gorn="0.3.0.0.0.0.0.2.0.0.0.0.0.5" id="path4406" d="m 436.942,344.992 c 7.088,2.02 14.223,3.821 20.167,8.639 7.755,6.287 9.749,13.559 5.829,22.789 -3.2,7.534 -7.736,14.14 -13.846,19.628 -1.017,0.988 -2.019,1.859 -2.675,-0.306 0.039,-2.219 1.088,-4.164 1.822,-6.165 3.26,-8.883 0.37,-15.863 -6.471,-21.686 -0.882,-0.75 -1.904,-1.339 -2.48,-2.396 -0.632,-1.149 -0.826,-2.48 -1.633,-3.581 -1.08,-1.474 -2.188,-3.075 -0.702,-4.898 0.819,-1.005 1.519,-0.854 5.654,0.953 -3.344,-2.521 -6.354,-4.374 -4.611,-8.738 0.59,-1.478 -1.853,-1.579 -2.497,-2.66 -1.176,-1.971 -0.409,-2.304 1.443,-1.579 z" clip-rule="evenodd" style="fill:#ef8803;fill-rule:evenodd" />
                                                    <path gorn="0.3.0.0.0.0.0.2.0.0.0.0.0.6" id="path4408" d="m 397.749,378.025 c -2.187,-0.116 -4.158,-0.22 -6.455,-0.341 0.08,-2.986 1.333,-4.762 4.238,-5.669 6.032,-1.881 12.004,-3.956 18.878,-6.243 -3.084,7.027 -0.356,8.892 5.653,6.938 0.9,5.078 -1.733,5.613 -5.261,5.124 -3.034,-0.42 -4.333,0.961 -4.912,3.968 -0.951,4.946 -2.391,9.798 -3.751,15.191 1.715,0 3.298,-0.126 4.851,0.043 1.081,0.118 3.134,-0.903 2.854,1.429 -0.151,1.268 -0.34,3.46 -2.081,3.411 -5.743,-0.161 -11.564,1.092 -17.231,-0.881 -1.902,-0.661 -2.439,-1.344 -1.784,-3.551 1.875,-6.328 3.325,-12.782 5.001,-19.419 z" clip-rule="evenodd" style="fill:#221a15;fill-rule:evenodd" />
                                                    <path gorn="0.3.0.0.0.0.0.2.0.0.0.0.0.7" id="path4410" d="m 194.745,372.995 c 0.062,4.327 -2.111,5.196 -5.651,4.915 -3.64,-0.289 -7.337,0.157 -10.979,-0.118 -4.79,-0.363 -7.404,2.321 -9.02,6.157 -1.062,2.52 -1.822,5.321 -1.962,8.035 -0.142,2.751 0.97,5.115 4.576,5.038 5.481,-0.115 10.968,-0.03 16.384,-0.03 0.732,4.615 -1.653,5.367 -5.346,5.038 -6.251,-0.556 -12.587,0.824 -18.811,-0.983 -5.064,-1.471 -9.769,-3.498 -10.846,-9.214 -1.221,-6.479 2.882,-10.582 7.758,-13.691 5.584,-3.56 11.798,-5.359 18.54,-5.174 5.12,0.139 10.246,0.027 15.357,0.027 z" clip-rule="evenodd" style="fill:#221a16;fill-rule:evenodd" />
                                                    <path gorn="0.3.0.0.0.0.0.2.0.0.0.0.0.8" id="path4412" d="m 361.031,442.022 c -2.736,0.786 -6.143,3.126 -6.073,-2.606 0.017,-1.411 -0.91,-1.45 -1.968,-1.515 -1.484,-0.092 -2.225,0.503 -1.995,1.983 0.458,2.947 -1.232,3.098 -3.511,3.071 -3.044,-0.035 -2.331,-2.119 -2.356,-3.812 -0.043,-2.979 -0.012,-5.958 -0.009,-8.937 0.006,-5.932 0.935,-6.498 6.945,-4.246 0.578,0.737 0.178,1.852 0.97,2.532 0.237,-1.097 -0.57,-1.698 -1.087,-2.43 1.046,-1.273 4.043,-1.082 2.964,-3.949 -0.515,-0.417 -0.514,-0.834 10e-4,-1.251 0.331,-2.119 -1.145,-5.062 3.299,-4.889 4.292,0.167 2.253,3.089 2.805,4.912 0.535,0.401 0.536,0.804 0.002,1.207 0.012,3.789 2.823,3.011 4.963,2.84 3.652,-0.293 5.523,1.081 4.889,4.817 -0.788,4.64 2.05,9.741 -1.782,13.98 3.039,1.923 -0.357,3.662 -0.28,5.591 0.241,6.005 -0.978,6.845 -6.986,6.622 -2.662,-0.098 -5.126,-0.666 -8.013,-2.623 2.889,-0.271 5.411,0.159 7.111,-0.828 2.329,-1.353 0.99,-4.216 1.031,-6.457 -0.554,-0.37 -0.558,-0.746 -0.014,-1.129 0.208,-0.931 0.417,-1.861 0.626,-2.792 0.004,-0.582 0.726,-1.507 0.091,-1.636 -0.677,-0.134 -1.064,1.007 -1.623,1.545 z" clip-rule="evenodd" style="fill:#241c18;fill-rule:evenodd" />
                                                    <path gorn="0.3.0.0.0.0.0.2.0.0.0.0.0.9" id="path4414" d="m 436.942,344.992 c -1.951,2.412 0.911,1.565 1.461,1.859 1.049,0.561 3.403,0.495 1.673,2.254 -3.537,3.595 -0.626,5.017 1.743,6.819 1.179,0.896 3.989,1.204 2.597,3.248 -1.275,1.873 -3.217,0.644 -4.429,-1.022 -0.654,-0.899 -1.514,-1.446 -2.446,-0.538 -0.885,0.86 -0.422,1.876 0.282,2.627 1.274,1.359 2.447,2.716 2.132,4.766 -2.465,0.57 -3.827,-1.532 -5.726,-2.345 -4.766,-3.378 -10.854,-3.924 -15.63,-7.286 -3.43,-3.044 -6.656,-6.229 -7.748,-10.939 -0.254,-1.096 -0.831,-2.167 0.104,-3.21 8.898,-0.366 17.482,1.432 25.987,3.767 z" clip-rule="evenodd" style="fill:#f19b02;fill-rule:evenodd" />
                                                    <path gorn="0.3.0.0.0.0.0.2.0.0.0.0.0.10" id="path4416" d="m 434.979,361.934 c 1.659,1.024 3.317,2.047 4.976,3.071 12.363,8.32 13.585,18.219 7.026,30.884 -1.026,1.414 -1.608,3.29 -3.72,3.574 -0.782,0.82 -1.564,1.643 -2.347,2.464 -0.676,0.663 -1.385,0.607 -2.114,0.097 3.073,-5.846 5.877,-11.708 5.035,-18.673 -1.128,-9.324 -8.351,-13.521 -14.927,-18.318 1.53,-2.003 3.666,-2.815 6.071,-3.099 z" clip-rule="evenodd" style="fill:#fbe50d;fill-rule:evenodd" />
                                                    <path gorn="0.3.0.0.0.0.0.2.0.0.0.0.0.11" id="path4418" d="m 265.231,452.16 c 7.75,-0.054 7.751,-0.054 7.752,-7.346 0,-8.163 0.06,-16.328 -0.04,-24.49 -0.027,-2.232 0.17,-3.821 2.967,-3.688 2.455,0.116 3.19,1.168 3.143,3.677 -0.173,9.16 -0.037,18.324 -0.087,27.488 -0.016,2.892 0.88,6.211 -2.692,7.869 -2.886,1.341 -7.667,-0.108 -11.043,-3.51 z" clip-rule="evenodd" style="fill:#221b17;fill-rule:evenodd" />
                                                    <path gorn="0.3.0.0.0.0.0.2.0.0.0.0.0.12" id="path4420" d="m 335.059,440.755 c -0.002,-3.816 0.078,-7.637 -0.048,-11.448 -0.041,-1.236 0.991,-3.216 -1.558,-3.403 -0.158,-0.011 -0.309,-0.098 -0.466,-0.14 -0.563,-0.151 -0.585,-0.323 -0.059,-0.503 4.943,-1.689 -0.111,-6.851 3.101,-9.022 2.081,-1.405 4.521,0.363 5.042,2.891 0.422,2.046 -2.082,5.156 1.908,6.08 -1.31,1.029 -2.172,2.007 -2.094,4.045 0.252,6.628 0.095,13.271 0.096,19.909 0,1.327 -0.101,2.664 0.021,3.98 0.188,2.037 -0.342,3.025 -2.678,2.908 -2.042,-0.103 -3.466,-0.111 -3.321,-2.854 0.22,-4.137 0.058,-8.295 0.056,-12.443 z" clip-rule="evenodd" style="fill:#241c18;fill-rule:evenodd" />
                                                    <path gorn="0.3.0.0.0.0.0.2.0.0.0.0.0.13" id="path4422" d="m 303.953,434.91 c 0.008,-2.313 0.098,-4.627 0.002,-6.935 -0.098,-2.339 -0.105,-3.99 3.221,-3.973 3.151,0.017 4.058,0.983 3.783,3.96 -0.21,2.287 0.032,4.614 0.072,6.925 0.546,0.728 0.546,1.453 -0.013,2.175 -0.038,3.963 -0.112,7.927 -0.103,11.89 0.006,2.688 0.015,5.918 -2.804,6.708 -2.944,0.826 -6.63,1.409 -9.041,-2.587 4.229,0.556 5.274,-1.472 4.97,-5.135 -0.3,-3.61 -0.075,-7.265 -0.08,-10.898 -0.576,-0.708 -0.575,-1.418 -0.007,-2.13 z" clip-rule="evenodd" style="fill:#231c17;fill-rule:evenodd" />
                                                    <path gorn="0.3.0.0.0.0.0.2.0.0.0.0.0.14" id="path4424" d="m 434.979,361.934 c -1.649,1.766 -3.767,2.615 -6.071,3.098 -13.23,-6.703 -27.647,-9.583 -41.899,-12.994 -0.389,-0.482 -0.364,-0.943 0.068,-1.384 0.982,-0.704 2.233,-1.158 3.25,-0.754 4.919,1.956 9.95,0.368 14.912,0.678 4.906,0.443 9.792,0.958 13.739,4.395 5.42,2.123 11.244,3.318 16.001,6.961 z" clip-rule="evenodd" style="fill:#fad20b;fill-rule:evenodd" />
                                                    <path gorn="0.3.0.0.0.0.0.2.0.0.0.0.0.15" id="path4426" d="m 332.066,340.064 c 18.289,-0.456 36.566,-1.746 54.875,-0.996 5.308,0.218 10.602,0.771 15.901,1.169 -2.278,3.833 -6.017,1.609 -9.079,2.199 -5.492,0.194 -10.995,0.262 -16.477,0.032 -7.88,-0.331 -15.571,0.361 -23.058,2.917 -8.553,-0.799 -17.138,-0.627 -25.709,-0.791 -1.952,-2.389 0.986,-1.56 1.529,-2.305 -1.695,0.13 -3.503,1.254 -5.274,-0.774 2.193,-2.183 5.169,-0.018 7.292,-1.451 z" clip-rule="evenodd" style="fill:#f6ca15;fill-rule:evenodd" />
                                                    <path gorn="0.3.0.0.0.0.0.2.0.0.0.0.0.16" id="path4428" d="m 393.955,341.015 c 2.948,-0.431 6.043,0.81 8.89,-0.777 2.702,0.329 5.407,0.658 8.111,0.987 0.937,5.596 4.828,9.468 8.022,13.748 -4.671,-0.986 -9.065,-3.274 -14.008,-2.988 -1.563,-0.967 -3.248,-1.281 -5.092,-1.474 -4.905,-0.513 -7.198,-4.365 -5.923,-9.496 z" clip-rule="evenodd" style="fill:#f3ac01;fill-rule:evenodd" />
                                                    <path gorn="0.3.0.0.0.0.0.2.0.0.0.0.0.17" id="path4430" d="m 249.187,432.077 c -0.088,5.144 -0.033,10.294 -0.309,15.426 -0.247,4.591 1.135,6.768 6.175,5.722 1.817,-0.378 3.805,-0.104 5.691,-1.473 0.324,3.246 -2.088,3.598 -3.413,3.783 -3.088,0.433 -6.342,0.556 -9.406,0.056 -3.105,-0.507 -5.215,-2.33 -5.013,-6.175 0.324,-6.13 0.21,-12.282 0.281,-18.427 2.193,-0.704 4.344,-1.192 5.994,1.088 z" clip-rule="evenodd" style="fill:#251e19;fill-rule:evenodd" />
                                                    <path gorn="0.3.0.0.0.0.0.2.0.0.0.0.0.18" id="path4432" d="m 264.049,433.517 c 0.006,-3.479 0.123,-6.963 -0.035,-10.436 -0.104,-2.273 0.473,-3.193 2.976,-3.199 2.606,-0.006 2.935,1.139 2.905,3.299 -0.094,6.958 -0.071,13.917 -0.003,20.874 0.022,2.298 -0.418,3.733 -3.199,3.865 -3.449,0.165 -2.6,-2.156 -2.632,-3.965 -0.063,-3.478 -0.019,-6.958 -0.012,-10.438 z" clip-rule="evenodd" style="fill:#2a221f;fill-rule:evenodd" />
                                                    <path gorn="0.3.0.0.0.0.0.2.0.0.0.0.0.19" id="path4434" d="m 327.988,343.844 c 8.661,-1.375 17.311,-0.661 25.959,0.158 1.165,1.504 2.829,1.376 4.499,1.545 8.063,0.818 16.079,1.998 24.026,3.597 1.599,0.321 3.318,0.475 4.507,1.85 0.01,0.348 0.019,0.695 0.028,1.044 -19.59,-2.847 -39.32,-4.362 -59.019,-6.188 -0.885,-1.416 -4.199,1.419 -3.83,-2.191 1.321,-0.81 2.595,-0.709 3.83,0.185 z" clip-rule="evenodd" style="fill:#eea80f;fill-rule:evenodd" />
                                                    <path gorn="0.3.0.0.0.0.0.2.0.0.0.0.0.20" id="path4436" d="m 303.953,434.91 c 0.003,0.71 0.006,1.42 0.009,2.13 -1.654,-0.064 -3.308,-0.18 -4.963,-0.183 -10.026,-0.021 -10.026,-0.013 -10.023,-9.702 0.003,-7.378 0.003,-7.378 7.969,-7.039 0.352,0.166 0.469,0.331 0.352,0.498 -0.115,0.165 -0.232,0.248 -0.353,0.248 -2.367,3.956 -1.551,8.449 -0.721,12.302 0.808,3.742 5.03,1.341 7.73,1.746 z" clip-rule="evenodd" style="fill:#251d19;fill-rule:evenodd" />
                                                    <path gorn="0.3.0.0.0.0.0.2.0.0.0.0.0.21" id="path4438" d="m 249.187,432.077 c -1.852,-1.165 -3.915,-1.169 -5.993,-1.088 4.882,-0.771 9.801,-1.489 14.691,-0.403 2.112,0.467 3.001,2.354 3.031,4.511 0.023,1.666 -0.006,3.331 10e-4,4.997 0.011,2.481 0.524,5.391 -2.404,6.485 -2.939,1.1 -5.804,0.364 -8.438,-2.239 7.664,-0.208 4.274,-5.736 4.639,-9.079 0.461,-4.225 -2.863,-3.496 -5.527,-3.184 z" clip-rule="evenodd" style="fill:#261e1a;fill-rule:evenodd" />
                                                    <path gorn="0.3.0.0.0.0.0.2.0.0.0.0.0.22" id="path4440" d="m 287.112,453.609 c 1.642,-3.76 3.299,-7.449 4.866,-11.177 1.258,-2.994 3.797,-1.427 5.547,-1.278 3.027,0.258 0.578,2.384 0.349,3.222 -2.312,8.479 -3.942,9.803 -10.762,9.233 z" clip-rule="evenodd" style="fill:#251e1a;fill-rule:evenodd" />
                                                    <path gorn="0.3.0.0.0.0.0.2.0.0.0.0.0.23" id="path4442" d="m 326.228,453.743 c -7.633,0.229 -9.054,-1.308 -11.646,-12.449 4.661,-1.406 7.328,0.186 8.405,5.078 0.544,2.468 2.042,4.727 3.241,7.371 z" clip-rule="evenodd" style="fill:#261e1a;fill-rule:evenodd" />
                                                    <path gorn="0.3.0.0.0.0.0.2.0.0.0.0.0.24" id="path4444" d="m 241.148,428.773 c 0.813,-2.957 1.879,-5.701 2.27,-8.537 0.55,-4.003 3.238,-3.369 5.771,-3.04 0.785,0.102 2.039,0.813 0.885,2 -1.04,1.069 -1.016,2.331 -1.176,3.649 -0.549,4.525 -2.912,6.762 -7.75,5.928 z" clip-rule="evenodd" style="fill:#29221e;fill-rule:evenodd" />
                                                    <path gorn="0.3.0.0.0.0.0.2.0.0.0.0.0.25" id="path4446" d="m 251.601,417.312 c 10.571,-1.889 8.491,6.621 11.104,11.364 -9.506,1.591 -5.982,-8.473 -11.104,-11.364 z" clip-rule="evenodd" style="fill:#261f1b;fill-rule:evenodd" />
                                                    <path gorn="0.3.0.0.0.0.0.2.0.0.0.0.0.26" id="path4448" d="m 327.988,343.844 c -1.313,0.077 -2.624,0.153 -3.937,0.23 -2.427,1.234 -4.823,1.531 -7.152,-0.233 -1.897,-2.849 -1.485,-4.155 2.276,-3.935 4.285,0.249 8.593,0.122 12.89,0.158 -1.832,1.501 -4.163,0.293 -7.207,1.44 2.666,0.359 4.329,0.583 6.258,0.843 -1.199,0.574 -2.163,1.036 -3.128,1.497 z" clip-rule="evenodd" style="fill:#fbf3be;fill-rule:evenodd" />
                                                    <path gorn="0.3.0.0.0.0.0.2.0.0.0.0.0.27" id="path4450" d="m 312.032,419.117 c 3.429,-3.701 7.837,-1.462 12.193,-2.466 -0.91,3.209 -3.066,3.228 -5.115,3.419 -2.438,0.268 -5.013,1.556 -7.078,-0.953 z" clip-rule="evenodd" style="fill:#261e1b;fill-rule:evenodd" />
                                                    <path gorn="0.3.0.0.0.0.0.2.0.0.0.0.0.28" id="path4452" d="m 361.018,422.095 c -10e-4,-0.402 -0.002,-0.805 -0.002,-1.207 1.084,-0.135 2.85,1.08 2.838,-1.247 -0.004,-0.891 -1.929,-2.119 0.359,-2.449 1.27,-0.183 3.011,-0.91 3.82,1.111 0.609,1.522 2.119,2.245 3.986,3.792 -4.193,0 -7.597,0 -11.001,0 z" clip-rule="evenodd" style="fill:#302a26;fill-rule:evenodd" />
                                                    <path gorn="0.3.0.0.0.0.0.2.0.0.0.0.0.29" id="path4454" d="m 353.092,446.017 c 1.458,1.401 2.917,2.803 4.498,4.322 -7.001,1.305 -7.756,1.026 -9.467,-3.337 1.475,-1.244 3.181,-1.319 4.969,-0.985 z" clip-rule="evenodd" style="fill:#2c2421;fill-rule:evenodd" />
                                                    <path gorn="0.3.0.0.0.0.0.2.0.0.0.0.0.30" id="path4456" d="m 311.019,437.063 c 0.005,-0.726 0.009,-1.45 0.013,-2.175 4.266,0 8.53,0 12.795,0 0.04,0.528 0.08,1.058 0.12,1.587 -4.193,1.122 -8.656,0.097 -12.928,0.588 z" clip-rule="evenodd" style="fill:#494442;fill-rule:evenodd" />
                                                    <path gorn="0.3.0.0.0.0.0.2.0.0.0.0.0.31" id="path4458" d="m 312.032,419.117 c 2.162,1.786 4.743,0.452 7.078,0.953 -7.328,1.954 -14.777,0.523 -22.166,0.792 0.063,-0.249 0.063,-0.497 0,-0.746 5.024,-0.428 10.135,0.482 15.088,-0.999 z" clip-rule="evenodd" style="fill:#544f4c;fill-rule:evenodd" />
                                                    <path gorn="0.3.0.0.0.0.0.2.0.0.0.0.0.32" id="path4460" d="m 353.092,446.017 c -1.565,0.79 -3.227,1.088 -4.969,0.985 -0.938,-2.155 -3.438,-0.032 -4.962,-2.094 6.519,0 12.646,0 18.775,0 0.004,0.376 0.009,0.753 0.014,1.129 -2.953,-0.007 -5.906,-0.014 -8.858,-0.02 z" clip-rule="evenodd" style="fill:#3f3a37;fill-rule:evenodd" />
                                                    <path gorn="0.3.0.0.0.0.0.2.0.0.0.0.0.33" id="path4462" d="m 443.262,399.463 c 1.067,-1.37 1.622,-3.273 3.719,-3.573 0.613,1.257 1.404,0.145 2.111,0.158 -0.335,2.854 -2.934,3.918 -4.78,5.192 -1.598,1.103 -1.337,-0.733 -1.05,-1.777 z" clip-rule="evenodd" style="fill:#e1a949;fill-rule:evenodd" />
                                                    <path gorn="0.3.0.0.0.0.0.2.0.0.0.0.0.34" id="path4464" d="m 438.801,402.023 c 0.705,-0.032 1.409,-0.064 2.114,-0.097 0.274,4.346 -4.059,3.711 -6.459,6.79 0.432,-3.942 3.383,-4.606 4.345,-6.693 z" clip-rule="evenodd" style="fill:#f9ebab;fill-rule:evenodd" />
                                                    <path gorn="0.3.0.0.0.0.0.2.0.0.0.0.0.35" id="path4466" d="m 316.899,343.841 c 2.384,0.078 4.768,0.155 7.152,0.233 0.882,1.547 3.015,0.319 3.938,1.776 -3.653,0.007 -7.307,0.015 -10.96,0.021 -0.642,-0.604 -0.635,-1.22 -0.034,-1.847 l -0.096,-0.183 z" clip-rule="evenodd" style="fill:#db9a35;fill-rule:evenodd" />
                                                    <path gorn="0.3.0.0.0.0.0.2.0.0.0.0.0.36" id="path4468" d="m 361.031,442.022 c 0.288,-1.501 -1.382,-3.74 1.503,-4.249 0.912,-0.161 2.08,-0.093 2.143,1.257 0.069,1.49 0.732,3.536 -2.114,3.086 -0.511,-0.031 -1.021,-0.062 -1.532,-0.094 z" clip-rule="evenodd" style="fill:#aaa7a6;fill-rule:evenodd" />
                                                    <path gorn="0.3.0.0.0.0.0.2.0.0.0.0.0.37" id="path4470" d="m 316.995,344.026 c 0.011,0.615 0.022,1.231 0.034,1.847 -2.305,0 -4.61,0 -7.376,0 2.281,-2.561 4.92,-1.776 7.342,-1.847 z" clip-rule="evenodd" style="fill:#e6b86d;fill-rule:evenodd" />
                                                    <path gorn="0.3.0.0.0.0.0.2.0.0.0.0.0.38" id="path4472" d="m 354.912,420.864 c 0,0.417 0,0.834 -10e-4,1.251 -3.424,0 -6.849,0 -10.273,0 -0.004,-0.417 -0.009,-0.834 -0.014,-1.251 3.43,0 6.858,0 10.288,0 z" clip-rule="evenodd" style="fill:#403b38;fill-rule:evenodd" />
                                                    <path gorn="0.3.0.0.0.0.0.2.0.0.0.0.0.39" id="path4474" d="m 222.265,380.603 c -1.034,-0.553 -3.32,1.385 -3.393,-1.567 -0.115,-4.711 1.83,-7.228 5.66,-7.254 3.274,-0.023 7.068,-0.536 8.254,3.56 0.792,2.728 -4.155,5.121 -10.521,5.261 z" clip-rule="evenodd" style="fill:#f7f7f6;fill-rule:evenodd" />
                                                    <path gorn="0.3.0.0.0.0.0.2.0.0.0.0.0.40" id="path4476" d="m 317.343,397.077 c -1.338,-0.479 -4.03,0.963 -3.281,-2.086 0.543,-2.21 0.065,-6.078 3.83,-5.417 2.404,0.422 7.088,-0.937 6.818,3.49 -0.243,3.986 -4.401,3.585 -7.367,4.013 z" clip-rule="evenodd" style="fill:#f9f8f8;fill-rule:evenodd" />
                                                    <path gorn="0.3.0.0.0.0.0.2.0.0.0.0.0.41" id="path4478" d="m 317.217,384.719 c 0.953,-6.827 3.252,-8.568 8.531,-6.507 1.016,0.397 2.288,0.773 2.428,2.185 0.146,1.479 -0.6,2.544 -1.848,3.229 -2.725,1.495 -5.649,1.62 -9.111,1.093 z" clip-rule="evenodd" style="fill:#f7f6f4;fill-rule:evenodd" />
                                                    <path gorn="0.3.0.0.0.0.0.2.0.0.0.0.0.42" id="path4480" d="m 282.509,382.782 c -0.721,4.599 -1.531,9.172 -5.209,12.516 -2.321,2.109 -5.259,2.446 -7.84,1.182 -2.35,-1.151 -2.162,-3.78 -1.761,-6.191 0.574,-3.454 1.42,-6.821 3.524,-9.652 2.124,-2.857 5.246,-3.33 8.469,-2.525 2.253,0.563 2.835,2.528 2.817,4.67 z" clip-rule="evenodd" style="fill:#fdfcfc;fill-rule:evenodd" />
                                                    <path gorn="0.3.0.0.0.0.0.2.0.0.0.0.0.43" id="path4482" d="m 367.775,377.862 c 4.452,-0.21 6.164,1.872 5.585,5.814 -0.632,4.302 -1.662,8.5 -5.055,11.606 -2.339,2.142 -5.297,2.424 -7.885,1.176 -2.393,-1.152 -2.145,-3.812 -1.722,-6.22 0.576,-3.285 1.424,-6.437 3.253,-9.289 1.466,-2.283 3.333,-3.593 5.824,-3.087 z" clip-rule="evenodd" style="fill:#fcfcfc;fill-rule:evenodd" />
                                                    <path gorn="0.3.0.0.0.0.0.2.0.0.0.0.0.44" id="path4484" d="m 351.947,426.064 c 2.605,-0.954 3.104,0.367 3.023,2.63 -0.059,1.647 -0.746,2.781 -2.301,2.133 -2.665,-1.11 -1.194,-3.129 -0.606,-4.866 0.001,10e-4 -0.116,0.103 -0.116,0.103 z" clip-rule="evenodd" style="fill:#dad8d6;fill-rule:evenodd" />
                                                    <path gorn="0.3.0.0.0.0.0.2.0.0.0.0.0.45" id="path4486" d="m 362.054,430.891 c -1.784,-0.287 -0.912,-2.089 -1.048,-3.371 -0.119,-1.12 0.382,-1.879 1.654,-1.762 2.077,0.192 1.978,1.775 2.001,3.239 0.023,1.415 -0.691,2.081 -2.607,1.894 z" clip-rule="evenodd" style="fill:#d2cfcd;fill-rule:evenodd" />
                                                    <path gorn="0.3.0.0.0.0.0.2.0.0.0.0.0.46" id="path4488" d="m 354.81,434.188 c 0.178,1.361 -0.343,1.91 -1.59,1.946 -1.598,0.046 -1.854,-0.835 -1.78,-2.162 0.062,-1.098 0.289,-1.854 1.618,-1.855 1.587,-0.004 1.906,0.897 1.752,2.071 z" clip-rule="evenodd" style="fill:#fefcfa;fill-rule:evenodd" />
                                                    <path gorn="0.3.0.0.0.0.0.2.0.0.0.0.0.47" id="path4490" d="m 362.578,431.92 c 1.344,-0.081 2.088,0.393 2.29,1.885 0.226,1.665 -0.896,1.755 -1.939,2.157 -1.691,0.65 -2.041,-0.255 -2.046,-1.635 -0.005,-1.195 0.013,-2.389 1.695,-2.407 z" clip-rule="evenodd" style="fill:#aaa7a6;fill-rule:evenodd" />
                                                    <path gorn="0.3.0.0.0.0.0.2.0.0.0.0.0.48" id="path4492" d="m 386.979,350.995 c -7.114,-1.075 -14.278,-1.911 -21.321,-3.345 -2.816,-0.573 -5.552,-0.611 -8.327,-0.621 -2.184,-0.008 -3.554,-0.559 -3.384,-3.026 13.029,-5.098 26.647,-2.317 40.008,-2.989 0.396,5.217 2.404,8.932 8.35,9.037 1.297,0.023 2.122,0.814 2.666,1.934 -6.093,1.416 -12.004,-0.488 -17.992,-0.99 z" clip-rule="evenodd" style="fill:#f6b904;fill-rule:evenodd" />
                                                </g>
                                            </g>
                                        </g>
                                    </g>
                                </g>
                            </g>
                        </g>
                    </g>
                </g>
            </g>
        </g>
    </g>
    <g transform="translate(0,72)" >
        <g >
            <g gorn="0.4.0.0" id="g4142" >
                <g gorn="0.4.0.0.0" id="g4144" >
                    <g gorn="0.4.0.0.0.0" id="g4146" >
                        <g gorn="0.4.0.0.0.0.0" id="layer3" style="display:inline" >
                            <g transform="matrix(0.77552166,0,0,0.78955155,-0.12626907,16.351845)" >
                                <g >
                                    <g gorn="0.4.0.0.0.0.0.0.0.0" id="g4149" >
                                        <g gorn="0.4.0.0.0.0.0.0.0.0.0" id="g4151" >
                                            <g gorn="0.4.0.0.0.0.0.0.0.0.0.0" id="g4153" >
                                                <path fill-opacity="1" gorn="0.4.0.0.0.0.0.0.0.0.0.0.0" id="path5428" stroke-opacity="1" stroke="#000000" d="m 18,67.5 a 9,9 0 1 1 -18,0 9,9 0 1 1 18,0 z" style="stroke-linejoin:round;stroke-miterlimit:4;stroke-dasharray:none" stroke-width="0" fill="#b3b3b3" />
                                            </g>
                                        </g>
                                    </g>
                                </g>
                            </g>
                            <g transform="matrix(0.76850671,0,0,0.77552166,16.793786,17.425131)" >
                                <g >
                                    <g gorn="0.4.0.0.0.0.0.1.0.0" id="g4156" >
                                        <g gorn="0.4.0.0.0.0.0.1.0.0.0" id="g4158" >
                                            <g gorn="0.4.0.0.0.0.0.1.0.0.0.0" id="g4160" >
                                                <path fill-opacity="1" gorn="0.4.0.0.0.0.0.1.0.0.0.0.0" id="path5430" stroke-opacity="1" stroke="#000000" d="m 72,67.5 a 9,9 0 1 1 -18,0 9,9 0 1 1 18,0 z" style="stroke-linejoin:round;stroke-miterlimit:4;stroke-dasharray:none" stroke-width="0" fill="#b3b3b3" />
                                            </g>
                                        </g>
                                    </g>
                                </g>
                            </g>
                            <g transform="matrix(0.77552166,0,0,0.78955155,-0.12626907,16.351845)" >
                                <g >
                                    <g gorn="0.4.0.0.0.0.0.2.0.0" id="g4163" >
                                        <g gorn="0.4.0.0.0.0.0.2.0.0.0" id="g4165" >
                                            <g gorn="0.4.0.0.0.0.0.2.0.0.0.0" id="g4167" >
                                                <path fill-opacity="1" gorn="0.4.0.0.0.0.0.2.0.0.0.0.0" id="path5432" stroke-opacity="1" stroke="#000000" d="m 13.5,67.5 a 4.5,4.5 0 1 1 -9,0 4.5,4.5 0 1 1 9,0 z" style="stroke-linejoin:round;stroke-miterlimit:4;stroke-dasharray:none" stroke-width="0" fill="#4d4d4d" />
                                            </g>
                                        </g>
                                    </g>
                                </g>
                            </g>
                            <g transform="matrix(0.76850671,0,0,0.77552166,16.793786,17.425131)" >
                                <g >
                                    <g gorn="0.4.0.0.0.0.0.3.0.0" id="g4170" >
                                        <g gorn="0.4.0.0.0.0.0.3.0.0.0" id="g4172" >
                                            <g gorn="0.4.0.0.0.0.0.3.0.0.0.0" id="g4174" >
                                                <path fill-opacity="1" gorn="0.4.0.0.0.0.0.3.0.0.0.0.0" id="path5434" stroke-opacity="1" stroke="#000000" d="m 67.5,67.5 a 4.5,4.5 0 1 1 -9,0 4.5,4.5 0 1 1 9,0 z" style="stroke-linejoin:round;stroke-miterlimit:4;stroke-dasharray:none" stroke-width="0" fill="#666666" />
                                            </g>
                                        </g>
                                    </g>
                                </g>
                            </g>
                            <rect fill-opacity="1" gorn="0.4.0.0.0.0.0.4" id="rect5438" y="63" stroke="none" width="42.692261" x="14.969543" fill="#ffffff"  height="18"/>
                            <g transform="translate(-4.5456864,-0.06313453)" >
                                <g >
                                    <g gorn="0.4.0.0.0.0.0.5.0.0" id="g4178" >
                                        <g gorn="0.4.0.0.0.0.0.5.0.0.0" id="g4180" >
                                            <g gorn="0.4.0.0.0.0.0.5.0.0.0.0" id="g4182" >
                                                <path fill-opacity="1" gorn="0.4.0.0.0.0.0.5.0.0.0.0.0" id="connector5pin" stroke="none" d="m 37.35,77.400002 a 1.35,1.35 0 1 1 -2.7,0 1.35,1.35 0 1 1 2.7,0 z" fill="#d4aa00" />
                                            </g>
                                        </g>
                                    </g>
                                </g>
                            </g>
                            <g transform="translate(-4.0406102,-0.12626907)" >
                                <g >
                                    <g gorn="0.4.0.0.0.0.0.6.0.0" id="g4185" >
                                        <g gorn="0.4.0.0.0.0.0.6.0.0.0" id="g4187" >
                                            <g gorn="0.4.0.0.0.0.0.6.0.0.0.0" id="g4189" >
                                                <path fill-opacity="1" gorn="0.4.0.0.0.0.0.6.0.0.0.0.0" id="connector6pin" stroke="none" d="m 27.899999,77.400002 a 1.35,1.35 0 1 1 -2.7,0 1.35,1.35 0 1 1 2.7,0 z" fill="#d4aa00" />
                                            </g>
                                        </g>
                                    </g>
                                </g>
                            </g>
                            <g transform="translate(4.0361233,-0.10011789)" >
                                <g >
                                    <g gorn="0.4.0.0.0.0.0.7.0.0" id="g4192" >
                                        <g gorn="0.4.0.0.0.0.0.7.0.0.0" id="g4194" >
                                            <g gorn="0.4.0.0.0.0.0.7.0.0.0.0" id="g4196" >
                                                <path fill-opacity="1" gorn="0.4.0.0.0.0.0.7.0.0.0.0.0" id="connector8pin" stroke="none" d="m 46.800001,77.400002 a 1.35,1.35 0 1 1 -2.7,0 1.35,1.35 0 1 1 2.7,0 z" fill="#d4aa00" />
                                            </g>
                                        </g>
                                    </g>
                                </g>
                            </g>
                            <g transform="matrix(-0.0044832,-0.99998995,0.99998995,-0.0044832,0,0)" >
                                <g >
                                    <g gorn="0.4.0.0.0.0.0.8.0.0" id="g4199" >
                                        <g gorn="0.4.0.0.0.0.0.8.0.0.0" id="g4201" >
                                            <g gorn="0.4.0.0.0.0.0.8.0.0.0.0" id="g4203" >
                                                <g fill-opacity="1" font-size="40" gorn="0.4.0.0.0.0.0.8.0.0.0.0.0" id="text5452" stroke="none" style="font-style:normal;font-weight:normal;line-height:125%;letter-spacing:0px;word-spacing:0px;font-family:Droid Sans" xmlns:xml="http://www.w3.org/XML/1998/namespace" xml:space="preserve" fill="#ececec" >
                                                    <text gorn="0.4.0.0.0.0.0.8.0.0.0.0.0.0" id="tspan5454" y="24.857346" style="font-size:8px;fill:#ececec" x="-62.701031" >DO</text>
                                                </g>
                                            </g>
                                        </g>
                                    </g>
                                </g>
                            </g>
                            <g transform="matrix(-0.0097147,-0.99995281,0.99995281,-0.0097147,0,0)" >
                                <g >
                                    <g gorn="0.4.0.0.0.0.0.9.0.0" id="g4207" >
                                        <g gorn="0.4.0.0.0.0.0.9.0.0.0" id="g4209" >
                                            <g gorn="0.4.0.0.0.0.0.9.0.0.0.0" id="g4211" >
                                                <g fill-opacity="1" font-size="40" gorn="0.4.0.0.0.0.0.9.0.0.0.0.0" id="text5456" stroke="none" style="font-style:normal;font-weight:normal;line-height:125%;letter-spacing:0px;word-spacing:0px;font-family:Droid Sans" xmlns:xml="http://www.w3.org/XML/1998/namespace" xml:space="preserve" fill="#f2f2f2" >
                                                    <text gorn="0.4.0.0.0.0.0.9.0.0.0.0.0.0" id="tspan5458" y="43.146641" style="font-size:8px;fill:#f2f2f2" x="-62.395832" >VCC</text>
                                                </g>
                                            </g>
                                        </g>
                                    </g>
                                </g>
                            </g>
                            <g transform="matrix(0.00522391,-0.99998636,0.99998636,0.00522391,0,0)" >
                                <g >
                                    <g gorn="0.4.0.0.0.0.0.10.0.0" id="g4215" >
                                        <g gorn="0.4.0.0.0.0.0.10.0.0.0" id="g4217" >
                                            <g gorn="0.4.0.0.0.0.0.10.0.0.0.0" id="g4219" >
                                                <g fill-opacity="1" font-size="40" gorn="0.4.0.0.0.0.0.10.0.0.0.0.0" id="text5460" stroke="none" style="font-style:normal;font-weight:normal;line-height:125%;letter-spacing:0px;word-spacing:0px;font-family:Droid Sans" xmlns:xml="http://www.w3.org/XML/1998/namespace" xml:space="preserve" fill="#f2f2f2" >
                                                    <text gorn="0.4.0.0.0.0.0.10.0.0.0.0.0.0" id="tspan5462" y="52.982475" style="font-size:8px;fill:#f2f2f2" x="-62.218998" >GND</text>
                                                </g>
                                            </g>
                                        </g>
                                    </g>
                                </g>
                            </g>
                            <g transform="translate(4.5174485,-0.0631345)" >
                                <g >
                                    <g gorn="0.4.0.0.0.0.0.11.0.0" id="g4223" >
                                        <g gorn="0.4.0.0.0.0.0.11.0.0.0" id="g4225" >
                                            <g gorn="0.4.0.0.0.0.0.11.0.0.0.0" id="g4227" >
                                                <path fill-opacity="1" gorn="0.4.0.0.0.0.0.11.0.0.0.0.0" id="connector7pin" stroke="none" d="m 37.35,77.400002 a 1.35,1.35 0 1 1 -2.7,0 1.35,1.35 0 1 1 2.7,0 z" style="display:inline" fill="#d4aa00" />
                                            </g>
                                        </g>
                                    </g>
                                </g>
                            </g>
                            <g transform="matrix(-0.0044832,-0.99998995,0.99998995,-0.0044832,0,0)" >
                                <g >
                                    <g gorn="0.4.0.0.0.0.0.12.0.0" id="g4230" >
                                        <g gorn="0.4.0.0.0.0.0.12.0.0.0" id="g4232" >
                                            <g gorn="0.4.0.0.0.0.0.12.0.0.0.0" id="g4234" >
                                                <g fill-opacity="1" font-size="40" gorn="0.4.0.0.0.0.0.12.0.0.0.0.0" id="text5452-7" stroke="none" style="font-style:normal;font-weight:normal;line-height:125%;letter-spacing:0px;word-spacing:0px;display:inline;font-family:Droid Sans" xmlns:xml="http://www.w3.org/XML/1998/namespace" xml:space="preserve" fill="#ececec" >
                                                    <text gorn="0.4.0.0.0.0.0.12.0.0.0.0.0.0" id="tspan5454-4" y="34.181442" style="font-size:8px;fill:#ececec" x="-62.456879" >AO</text>
                                                </g>
                                            </g>
                                        </g>
                                    </g>
                                </g>
                            </g>
                            <rect fill-opacity="1" gorn="0.4.0.0.0.0.0.13" id="rect3016" y="22.5" stroke="none" width="9" x="4.5" fill="#008080"  height="18"/>
                            <path fill-opacity="1" gorn="0.4.0.0.0.0.0.14" id="path3040" stroke="none" d="m 22.5,31.5 a 9,9 0 1 1 -18,0 9,9 0 1 1 18,0 z" fill="#008080" />
                            <g transform="translate(0,-72)" >
                                <g >
                                    <g gorn="0.4.0.0.0.0.0.15.0.0" id="g4240" >
                                        <g gorn="0.4.0.0.0.0.0.15.0.0.0" id="g4242" >
                                            <g gorn="0.4.0.0.0.0.0.15.0.0.0.0" id="g4244" >
                                                <path gorn="0.4.0.0.0.0.0.15.0.0.0.0.0" id="path3210" stroke-opacity="1" stroke="#b2b2b2" d="M 36.15625 6.40625 L 9.71875 24.90625 L 36.15625 6.40625 z M 40.25 6.71875 L 9.78125 28.1875 L 40.25 6.71875 z M 44.34375 7.125 L 9.3125 31.84375 L 44.34375 7.125 z M 46.9375 8.5 L 7.03125 36.90625 L 46.9375 8.5 z M 50.15625 9.5 L 6.21875 40.96875 L 50.15625 9.5 z M 52.375 11.28125 L 7.71875 43.25 L 52.375 11.28125 z M 53.875 13.5625 L 9.21875 45.53125 L 53.875 13.5625 z M 55.375 15.84375 L 10.71875 47.8125 L 55.375 15.84375 z M 56.875 18.125 L 12.25 50.09375 L 56.875 18.125 z M 58.40625 20.40625 L 13.75 52.375 L 58.40625 20.40625 z M 59.90625 22.6875 L 15.25 54.65625 L 59.90625 22.6875 z M 61.40625 24.96875 L 16.78125 56.9375 L 61.40625 24.96875 z M 62.90625 27.25 L 18.28125 59.21875 L 62.90625 27.25 z M 64.4375 29.53125 L 19.78125 61.5 L 64.4375 29.53125 z M 65.9375 31.8125 L 21.28125 63.78125 L 65.9375 31.8125 z M 65.0625 35.84375 L 64.59375 36.125 L 24.40625 64.9375 L 65.0625 35.84375 z M 65.53125 38.65625 L 27.59375 65.84375 L 65.53125 38.65625 z M 65.09375 42.625 L 30.1875 67.25 L 65.09375 42.625 z M 63.3125 46.96875 L 33.9375 67.46875 L 63.3125 46.96875 z " style="stroke-linecap:butt;stroke-linejoin:miter;stroke-miterlimit:4;stroke-dasharray:none" stroke-width="0.45" fill="none" />
                                            </g>
                                        </g>
                                    </g>
                                </g>
                            </g>
                            <path gorn="0.4.0.0.0.0.0.16" id="path3210-6" stroke-opacity="1" stroke="#acacac" d="m 39.563889,-65.220906 23.942944,21.631617 -23.942944,-21.631617 z m -4.100937,-0.196876 27.575511,25.076744 -27.575511,-25.076744 z m -4.112548,-0.103848 31.70041,28.866747 -31.70041,-28.866747 z m -2.744064,1.043204 36.081222,33.129583 -36.081222,-33.129583 z m -3.317812,0.593692 39.702179,36.667739 -39.702179,-36.667739 z m -2.422261,1.492768 40.353476,37.2529 -40.353476,-37.2529 z m -1.770964,2.077929 40.353476,37.2529 -40.353476,-37.2529 z m -1.770964,2.077929 40.353476,37.2529 -40.353476,-37.2529 z m -1.770964,2.077928 40.322467,37.249031 -40.322467,-37.249031 z m -1.801973,2.074059 40.353476,37.252901 -40.353476,-37.252901 z m -1.770964,2.077929 40.353476,37.252901 -40.353476,-37.252901 z m -1.770964,2.077929 40.322467,37.249031 -40.322467,-37.249031 z m -1.770963,2.077929 40.322466,37.249031 -40.322466,-37.249031 z M 8.6365378,-45.776275 48.990014,-8.523374 8.6365378,-45.776275 z M 6.865574,-43.698346 47.21905,-6.4454446 6.865574,-43.698346 z m 0.3690334,4.108579 0.4303116,0.337135 L 43.974915,-5.685096 7.2346074,-39.589767 z M 6.4211651,-36.856968 40.699722,-5.1805629 6.4211651,-36.856968 z m -0.057359,3.99238 L 37.951788,-4.1063486 6.3638063,-32.864588 z M 7.5934136,-28.333685 34.203565,-4.3536834 7.5934136,-28.333685 z" style="stroke-linecap:butt;stroke-linejoin:miter;display:inline;stroke-miterlimit:4;stroke-dasharray:none" stroke-width="0.45" fill="#cccccc" />
                            <g transform="translate(0,-72)" >
                                <g >
                                    <g gorn="0.4.0.0.0.0.0.17.0.0" id="g4248" >
                                        <g gorn="0.4.0.0.0.0.0.17.0.0.0" id="g4250" >
                                            <g gorn="0.4.0.0.0.0.0.17.0.0.0.0" id="g4252" >
                                                <path fill-opacity="1" gorn="0.4.0.0.0.0.0.17.0.0.0.0.0" id="path4901" stroke-opacity="1" stroke="#424242" d="m 61.240498,36.958725 c 0,14.295978 -11.320651,25.885159 -25.285382,25.885159 -13.96473,0 -25.285381,-11.589181 -25.285381,-25.885159 0,-14.295978 11.320651,-25.885159 25.285381,-25.885159 13.964731,0 25.285382,11.589181 25.285382,25.885159 z" style="stroke-linecap:round;stroke-linejoin:bevel;stroke-miterlimit:4;stroke-dasharray:none" stroke-width="0.71999999999999997" fill="none" />
                                            </g>
                                        </g>
                                    </g>
                                </g>
                            </g>
                        </g>
                    </g>
                </g>
            </g>
        </g>
    </g>
    <g transform="translate(0,72)" >
        <g >
            <g gorn="0.5.0.0" id="g4255" >
                <g gorn="0.5.0.0.0" id="g4257" >
                    <g gorn="0.5.0.0.0.0" id="g4259" >
                        <g gorn="0.5.0.0.0.0.0" id="layer6" style="display:inline" >
                            <path fill-opacity="1" gorn="0.5.0.0.0.0.0.0" id="path3838" stroke="none" d="M 21.6,31.5 A 8.1000004,8.1000004 0 1 1 5.3999996,31.5 8.1000004,8.1000004 0 1 1 21.6,31.5 z" fill="#1d5f5e" />
                            <path fill-opacity="1" gorn="0.5.0.0.0.0.0.1" id="path3810" stroke="none" d="m 13.5,24.3125 c -1.699368,0 -3.268479,0.57787 -4.5,1.5625 l 0,11.25 c 1.231521,0.98463 2.800632,1.5625 4.5,1.5625 3.97645,0 7.1875,-3.21105 7.1875,-7.1875 0,-3.97645 -3.21105,-7.1875 -7.1875,-7.1875 z" style="display:inline" fill="#ececec" />
                            <rect fill-opacity="1" gorn="0.5.0.0.0.0.0.2" id="rect3820" y="30.6" stroke="none" ry="0.89999962" style="display:inline" width="5.4000001" x="9.8999996" fill="#333333"  height="1.8"/>
                            <rect fill-opacity="1" gorn="0.5.0.0.0.0.0.3" id="rect3818" y="26.1" stroke="none" style="display:inline" width="1.8" x="11.7" fill="#333333"  height="10.8"/>
                            <rect fill-opacity="1" gorn="0.5.0.0.0.0.0.4" id="rect3842" y="25.200001" stroke="none" width="18.9" x="27.9" fill="#333333"  height="14.400003"/>
                            <rect fill-opacity="1" gorn="0.5.0.0.0.0.0.5" id="rect3858" y="39.599998" stroke="none" width="1.8" x="43.200001" fill="#b3b3b3"  height="2.7"/>
                            <rect fill-opacity="1" gorn="0.5.0.0.0.0.0.6" id="rect3862" y="39.599998" stroke="none" width="1.8" x="38.700001" fill="#b3b3b3"  height="2.7"/>
                            <rect fill-opacity="1" gorn="0.5.0.0.0.0.0.7" id="rect3864" y="39.599998" stroke="none" width="1.8" x="34.200001" fill="#b3b3b3"  height="2.7"/>
                            <rect fill-opacity="1" gorn="0.5.0.0.0.0.0.8" id="rect3866" y="39.599998" stroke="none" width="1.8" x="29.700001" fill="#b3b3b3"  height="2.7"/>
                            <rect fill-opacity="1" gorn="0.5.0.0.0.0.0.9" id="rect3868" y="22.5" stroke="none" width="1.8" x="29.700001" fill="#b3b3b3"  height="2.7"/>
                            <rect fill-opacity="1" gorn="0.5.0.0.0.0.0.10" id="rect3870" y="22.5" stroke="none" width="1.8" x="34.200001" fill="#b3b3b3"  height="2.7"/>
                            <rect fill-opacity="1" gorn="0.5.0.0.0.0.0.11" id="rect3872" y="22.5" stroke="none" width="1.8" x="38.700001" fill="#b3b3b3"  height="2.7"/>
                            <rect fill-opacity="1" gorn="0.5.0.0.0.0.0.12" id="rect3874" y="22.5" stroke="none" width="1.8" x="43.200001" fill="#b3b3b3"  height="2.7"/>
                            <flowRoot fill-opacity="1" font-size="6" id="flowRoot3876" stroke="none" style="font-style:normal;font-weight:normal;line-height:125%;letter-spacing:0px;word-spacing:0px;font-family:Droid Sans" xmlns:xml="http://www.w3.org/XML/1998/namespace" xml:space="preserve" fill="#000000" >
                                <flowRegion id="flowRegion3878" >
                                    <rect gorn="0.5.0.0.0.0.0.13.0.0" id="rect3880" y="27.517857" width="17.5" x="28.303572"  height="8.125"/>
                                </flowRegion>
                                <flowPara id="flowPara3882" />
                            </flowRoot>
                            <g fill-opacity="1" font-size="6" gorn="0.5.0.0.0.0.0.14" id="text3884" stroke="none" style="font-style:normal;font-weight:normal;line-height:125%;letter-spacing:0px;word-spacing:0px;font-family:Droid Sans" xmlns:xml="http://www.w3.org/XML/1998/namespace" xml:space="preserve" fill="#000000" >
                                <text gorn="0.5.0.0.0.0.0.14.0" id="tspan3886" y="34.200001" style="fill:#ececec" x="27.9" >LM393</text>
                            </g>
                            <g transform="translate(0,-72)" >
                                <g >
                                    <g gorn="0.5.0.0.0.0.0.15.0.0" id="g4281" >
                                        <g gorn="0.5.0.0.0.0.0.15.0.0.0" id="g4283" >
                                            <g gorn="0.5.0.0.0.0.0.15.0.0.0.0" id="g4285" >
                                                <path fill-opacity="1" gorn="0.5.0.0.0.0.0.15.0.0.0.0.0" id="path6976" stroke="none" d="m 36,5.40625 c -16.899914,0 -30.59375,14.10303 -30.59375,31.5 0,17.39697 13.693836,31.5 30.59375,31.5 16.899914,0 30.59375,-14.10303 30.59375,-31.5 0,-17.39697 -13.693836,-31.5 -30.59375,-31.5 z m -0.09375,5.4375 c 13.917576,0 25.1875,11.679118 25.1875,26.09375 0,14.414632 -11.269924,26.09375 -25.1875,26.09375 -13.917576,0 -25.21875,-11.679118 -25.21875,-26.09375 0,-14.414632 11.301174,-26.09375 25.21875,-26.09375 z" style="display:inline" fill="#999999" />
                                            </g>
                                        </g>
                                    </g>
                                </g>
                            </g>
                        </g>
                    </g>
                </g>
            </g>
        </g>
    </g>
</svg>
